<?xml version="1.0" encoding="UTF-8"?>
<svg id="Ebene_2" xmlns="http://www.w3.org/2000/svg" version="1.1" viewBox="0 0 32 31.1">
  <!-- Generator: Adobe Illustrator 29.1.0, SVG Export Plug-In . SVG Version: 2.1.0 Build 142)  -->
  <g id="Ebene_1-2">
    <path d="M31.1,0l.9,1.9-2.5,1.3v25.8c0,1.1-.8,2-1.9,2.1H4.6c-1.1,0-2-.8-2.1-1.9v-12.5l-1.6.8-.9-1.9,2.5-1.3V6.1h2.1v7.1L31.1,0ZM27.4,4.2L4.6,15.6v13.3h6.2v-10.4c0-1.1.8-2,1.9-2.1h6.4c1.1,0,2,.8,2.1,1.9v10.6h6.2s0-24.7,0-24.7ZM19.1,18.6h-6.2v10.4h6.2v-10.4ZM24.3,10.3c.6,0,1,.5,1,1s-.5,1-1,1-1-.5-1-1,.5-1,1-1Z"/>
  </g>
</svg>